<svg width="192" height="192" viewBox="0 0 192 192" fill="none" xmlns="http://www.w3.org/2000/svg">
  <rect width="192" height="192" rx="40" fill="#1A0F0A"/>
  <path d="M96 50C76.1177 50 60 66.1177 60 86C60 105.882 76.1177 122 96 122C115.882 122 132 105.882 132 86C132 66.1177 115.882 50 96 50ZM96 114C80.536 114 68 101.464 68 86C68 70.536 80.536 58 96 58C111.464 58 124 70.536 124 86C124 101.464 111.464 114 96 114Z" fill="#EBE2D4"/>
  <path d="M100 142C100 144.209 98.2091 146 96 146C93.7909 146 92 144.209 92 142C92 139.791 93.7909 138 96 138C98.2091 138 100 139.791 100 142Z" fill="#B44222"/>
</svg>
