<svg width="512" height="512" viewBox="0 0 512 512" fill="none" xmlns="http://www.w3.org/2000/svg">
  <rect width="512" height="512" rx="100" fill="#1A0F0A"/>
  <path d="M256 120C202.981 120 160 162.981 160 216C160 269.019 202.981 312 256 312C309.019 312 352 269.019 352 216C352 162.981 309.019 120 256 120ZM256 290.667C214.763 290.667 181.333 257.237 181.333 216C181.333 174.763 214.763 141.333 256 141.333C297.237 141.333 330.667 174.763 330.667 216C330.667 257.237 297.237 290.667 256 290.667Z" fill="#EBE2D4"/>
  <path d="M266.667 365.333C266.667 371.224 261.891 376 256 376C250.109 376 245.333 371.224 245.333 365.333C245.333 359.442 250.109 354.667 256 354.667C261.891 354.667 266.667 359.442 266.667 365.333Z" fill="#B44222"/>
</svg>
